<?xml version="1.0" standalone="no"?>
<!DOCTYPE svg PUBLIC "-//W3C//DTD SVG 20010904//EN"
 "http://www.w3.org/TR/2001/REC-SVG-20010904/DTD/svg10.dtd">
<svg version="1.0" xmlns="http://www.w3.org/2000/svg"
 width="225.000000pt" height="225.000000pt" viewBox="0 0 225.000000 225.000000"
 preserveAspectRatio="xMidYMid meet">

<g transform="translate(0.000000,225.000000) scale(0.100000,-0.100000)"
fill="#000000" stroke="none">
<path d="M995 1709 c-300 -38 -638 -214 -913 -475 -67 -65 -82 -84 -82 -109 0
-25 15 -44 82 -109 171 -162 387 -305 578 -383 327 -133 603 -133 930 0 191
78 407 221 578 383 67 65 82 84 82 109 0 25 -15 44 -82 109 -281 266 -611 437
-923 475 -102 12 -149 12 -250 0z m211 -130 c243 -44 414 -282 375 -522 -33
-202 -186 -355 -388 -388 -245 -40 -482 135 -524 388 -44 266 171 522 447 532
17 0 57 -4 90 -10z m-605 -180 c-47 -87 -65 -162 -65 -274 0 -110 17 -184 62
-270 15 -27 29 -54 31 -59 6 -15 -147 71 -229 129 -88 62 -234 186 -234 199
-1 14 142 136 234 201 72 51 221 137 227 131 2 -1 -10 -27 -26 -57z m1194 -37
c79 -50 226 -166 267 -209 l28 -29 -38 -35 c-65 -62 -145 -125 -230 -183 -85
-57 -207 -124 -201 -109 2 4 16 31 31 58 45 86 62 160 62 270 0 110 -17 184
-62 270 -15 27 -29 54 -31 58 -5 13 95 -40 174 -91z"/>
<path d="M1045 1303 c-152 -80 -154 -277 -3 -354 71 -36 170 -17 224 43 91
100 64 247 -58 309 -45 23 -122 24 -163 2z m125 -133 c11 -11 20 -31 20 -45 0
-14 -9 -34 -20 -45 -11 -11 -31 -20 -45 -20 -14 0 -34 9 -45 20 -11 11 -20 31
-20 45 0 14 9 34 20 45 11 11 31 20 45 20 14 0 34 -9 45 -20z"/>
</g>
</svg>
